<?xml version="1.0" standalone="no"?><!DOCTYPE svg PUBLIC "-//W3C//DTD SVG 1.1//EN" "http://www.w3.org/Graphics/SVG/1.1/DTD/svg11.dtd"><svg t="1578194213444" class="icon" viewBox="0 0 1024 1024" version="1.1" xmlns="http://www.w3.org/2000/svg" p-id="5249" xmlns:xlink="http://www.w3.org/1999/xlink" width="200" height="200"><defs><style type="text/css"></style></defs><path d="M656 685.6c40.4 16.6 137.4 102.7 131.4 204H927s-45.4-229.5-170.7-257.1L656 685.6zM574.6 261.8c-119.7 0-216.7 95.2-216.7 212.7 0 117.5 74.6 148.7 194.3 148.7 75 0 167-112.6 165.9-148.7-3.7-117.4-23.8-212.7-143.5-212.7z" fill="#e6e6e6" p-id="5250"></path><path d="M510.5 653.3C381.3 653.3 276.2 550 276.2 423c0-61.6 24.4-119.5 68.8-163 44.2-43.4 103-67.3 165.5-67.3S631.7 216.6 676 260c44.3 43.5 68.8 101.4 68.8 163 0 61.6-24.4 119.5-68.8 163-44.3 43.4-103.1 67.3-165.5 67.3z m0-409.9C409.3 243.4 327 324 327 423s82.3 179.5 183.5 179.5S694 522 694 423c-0.1-99-82.4-179.6-183.5-179.6z" fill="#e6e6e6" p-id="5251"></path><path d="M915.1 931.6H108.6c-14 0-25.4-11.4-25.4-25.4 0-67.7 17.6-128.8 52.2-181.6 32.6-49.7 78.9-89.9 137.4-119.5 9.4-4.8 20.8-3.2 28.6 3.9 56.9 52 131.2 80.6 209 80.6 78 0 152.4-28.7 209.3-80.9 7.8-7.1 19.1-8.7 28.5-4 59.2 29.5 106 69.7 139.1 119.4 35.3 53 53.1 114.2 53.1 182 0.1 14.1-11.3 25.5-25.3 25.5zM135 880.8h753.7c-7.8-95.3-59.6-173.3-148.2-222.8-64.4 53.3-145.3 82.4-230 82.4-84.5 0-165.3-29-229.6-82-87.3 49.3-138.3 127.1-145.9 222.4z" fill="#e6e6e6" p-id="5252"></path><path d="M834.2 326.9c-18.5-46.3-53.9-109.7-86.4-142.2-63-63-146.7-97.6-235.7-97.6s-172.8 34.7-235.7 97.6c-33 33-67.6 95.6-85.7 141.7-27.2 18-45.1 48.8-45.1 83.8 0 55.4 44.9 100.4 100.4 100.4V309.8c43.5-104.2 146.4-177.7 266.2-177.7 119.8 0 222.7 73.4 266.2 177.7v200.7c55.4 0 100.4-44.9 100.4-100.4-0.2-34.6-17.8-65.2-44.6-83.2z" fill="#e6e6e6" p-id="5253"></path></svg>